Adsworth-72PT G XT0.ufo
<glyph name="quotedbl" format="2">
  <advance width="454"/>
  <unicode hex="0022"/>
  <outline>
    <contour>
      <point x="74" y="962" type="line"/>
      <point x="74" y="1500" type="line"/>
      <point x="167" y="1500" type="line"/>
      <point x="167" y="962" type="line"/>
    </contour>
    <contour>
      <point x="287" y="962" type="line"/>
      <point x="287" y="1500" type="line"/>
      <point x="380" y="1500" type="line"/>
      <point x="380" y="962" type="line"/>
    </contour>
  </outline>
</glyph>
<glyph name="dollar" format="2">
  <advance width="681"/>
  <unicode hex="0024"/>
  <outline>
    <contour>
      <point x="512.0" y="374.0" type="line" smooth="yes"/>
      <point x="512.0" y="511.0"/>
      <point x="369" y="660"/>
      <point x="282" y="751" type="qcurve" smooth="yes"/>
      <point x="183" y="861"/>
      <point x="63" y="1058"/>
      <point x="63" y="1210" type="qcurve" smooth="yes"/>
      <point x="63" y="1240" type="line" smooth="yes"/>
      <point x="63" y="1386"/>
      <point x="224.0" y="1504.0"/>
      <point x="326" y="1504" type="qcurve" smooth="yes"/>
      <point x="340" y="1504" type="line" smooth="yes"/>
      <point x="443" y="1504"/>
      <point x="595.0" y="1396.0"/>
      <point x="595" y="1272" type="qcurve" smooth="yes"/>
      <point x="595" y="1106" type="line"/>
      <point x="494" y="1106.0" type="line"/>
      <point x="494.0" y="1249" type="line" smooth="yes"/>
      <point x="494.0" y="1345"/>
      <point x="407" y="1404"/>
      <point x="340.0" y="1404" type="qcurve" smooth="yes"/>
      <point x="324.0" y="1404" type="line" smooth="yes"/>
      <point x="260.0" y="1404.0"/>
      <point x="158.0" y="1323"/>
      <point x="158.0" y="1239" type="qcurve" smooth="yes"/>
      <point x="158.0" y="1131" type="line" smooth="yes"/>
      <point x="158" y="1037"/>
      <point x="275" y="926"/>
      <point x="353" y="848" type="qcurve" smooth="yes"/>
      <point x="440" y="758"/>
      <point x="602.0" y="540.0"/>
      <point x="602.0" y="368.0" type="qcurve" smooth="yes"/>
      <point x="602.0" y="342.0" type="line" smooth="yes"/>
      <point x="602.0" y="187.0"/>
      <point x="455" y="-7.0"/>
      <point x="343" y="-7.0" type="qcurve" smooth="yes"/>
      <point x="330" y="-7.0" type="line" smooth="yes"/>
      <point x="223.0" y="-7"/>
      <point x="58" y="164.0"/>
      <point x="58" y="321.0" type="qcurve" smooth="yes"/>
      <point x="58" y="434.0" type="line"/>
      <point x="149" y="434.0" type="line"/>
      <point x="149.0" y="272" type="line" smooth="yes"/>
      <point x="149.0" y="173.0"/>
      <point x="252" y="79"/>
      <point x="330.0" y="79" type="qcurve" smooth="yes"/>
      <point x="346.0" y="79" type="line" smooth="yes"/>
      <point x="427.0" y="79.0"/>
      <point x="512.0" y="223.0"/>
      <point x="512.0" y="344" type="qcurve" smooth="yes"/>
    </contour>
    <contour>
      <point x="335.0" y="-100.0" type="line"/>
      <point x="335.0" y="791.0" type="line"/>
      <point x="350.0" y="791.0" type="line"/>
      <point x="350.0" y="-100.0" type="line"/>
    </contour>
    <contour>
      <point x="326.0" y="800.0" type="line"/>
      <point x="326.0" y="1593.0" type="line"/>
      <point x="341.0" y="1593.0" type="line"/>
      <point x="341.0" y="800.0" type="line"/>
    </contour>
  </outline>
</glyph>
<glyph name="comma" format="2">
  <advance width="430"/>
  <unicode hex="002C"/>
  <outline>
    <contour>
      <point x="139" y="-145" type="line"/>
      <point x="131" y="57" type="line" smooth="yes"/>
      <point x="129" y="90"/>
      <point x="170.0" y="151.0"/>
      <point x="209" y="151" type="qcurve" smooth="yes"/>
      <point x="217" y="151.0" type="line" smooth="yes"/>
      <point x="243.0" y="151.0"/>
      <point x="280.0" y="116.0"/>
      <point x="280" y="84.0" type="qcurve" smooth="yes"/>
      <point x="280" y="81" type="line" smooth="yes"/>
      <point x="280" y="48"/>
      <point x="195" y="-86"/>
      <point x="193" y="-148" type="qcurve"/>
    </contour>
  </outline>
</glyph>
<glyph name="hyphen" format="2">
  <advance width="700"/>
  <unicode hex="002D"/>
  <outline>
    <contour>
      <point x="649" y="716" type="line"/>
      <point x="51" y="716" type="line"/>
      <point x="51" y="795" type="line"/>
      <point x="649" y="795" type="line"/>
    </contour>
  </outline>
</glyph>
<glyph name="period" format="2">
  <advance width="430"/>
  <unicode hex="002E"/>
  <outline>
    <contour>
      <point x="214" y="-9" type="line" smooth="yes"/>
      <point x="250" y="-9"/>
      <point x="291" y="32"/>
      <point x="291" y="66" type="qcurve" smooth="yes"/>
      <point x="291" y="71" type="line" smooth="yes"/>
      <point x="291" y="103"/>
      <point x="251" y="145"/>
      <point x="214" y="145" type="qcurve" smooth="yes"/>
      <point x="213" y="145" type="line" smooth="yes"/>
      <point x="179" y="145"/>
      <point x="140" y="103"/>
      <point x="140" y="71" type="qcurve" smooth="yes"/>
      <point x="140" y="66" type="line" smooth="yes"/>
      <point x="140" y="32"/>
      <point x="179" y="-9"/>
      <point x="213" y="-9" type="qcurve" smooth="yes"/>
    </contour>
  </outline>
</glyph>
<glyph name="slash" format="2">
  <advance width="356"/>
  <unicode hex="002F"/>
  <outline>
    <contour>
      <point x="-88" y="0" type="line"/>
      <point x="352" y="1500" type="line"/>
      <point x="444" y="1500" type="line"/>
      <point x="4" y="0" type="line"/>
    </contour>
  </outline>
</glyph>
<glyph name="zero" format="2">
  <advance width="747"/>
  <unicode hex="0030"/>
  <outline>
    <contour>
      <point x="355" y="-15" type="line" smooth="yes"/>
      <point x="232" y="-15"/>
      <point x="96" y="165"/>
      <point x="96" y="353" type="qcurve" smooth="yes"/>
      <point x="96" y="1137" type="line" smooth="yes"/>
      <point x="96" y="1331"/>
      <point x="247" y="1504"/>
      <point x="354" y="1504" type="qcurve" smooth="yes"/>
      <point x="393" y="1504" type="line" smooth="yes"/>
      <point x="497" y="1504"/>
      <point x="651" y="1331"/>
      <point x="651" y="1137" type="qcurve" smooth="yes"/>
      <point x="651" y="353" type="line" smooth="yes"/>
      <point x="651" y="155"/>
      <point x="507" y="-15"/>
      <point x="394" y="-15" type="qcurve" smooth="yes"/>
    </contour>
    <contour>
      <point x="382" y="66" type="line" smooth="yes"/>
      <point x="465" y="66"/>
      <point x="567" y="177"/>
      <point x="567" y="307" type="qcurve" smooth="yes"/>
      <point x="567" y="1174" type="line" smooth="yes"/>
      <point x="567" y="1307"/>
      <point x="466" y="1418"/>
      <point x="382" y="1418" type="qcurve" smooth="yes"/>
      <point x="363" y="1418" type="line" smooth="yes"/>
      <point x="281" y="1418"/>
      <point x="180" y="1307"/>
      <point x="180" y="1174" type="qcurve" smooth="yes"/>
      <point x="180" y="307" type="line" smooth="yes"/>
      <point x="180" y="177"/>
      <point x="280" y="66"/>
      <point x="363" y="66" type="qcurve" smooth="yes"/>
    </contour>
  </outline>
</glyph>
<glyph name="one" format="2">
  <advance width="402"/>
  <unicode hex="0031"/>
  <outline>
    <contour>
      <point x="156" y="0" type="line"/>
      <point x="156" y="1500" type="line"/>
      <point x="246" y="1500" type="line"/>
      <point x="246" y="0" type="line"/>
    </contour>
  </outline>
</glyph>
<glyph name="two" format="2">
  <advance width="626"/>
  <unicode hex="0032"/>
  <outline>
    <contour>
      <point x="628" y="0.0" type="line"/>
      <point x="16" y="0" type="line"/>
      <point x="16" y="55" type="line"/>
      <point x="397" y="789" type="line" smooth="yes"/>
      <point x="432" y="860"/>
      <point x="527.0" y="1052.0"/>
      <point x="527" y="1161.0" type="qcurve" smooth="yes"/>
      <point x="527" y="1218.0" type="line" smooth="yes"/>
      <point x="527.0" y="1318.0"/>
      <point x="414.0" y="1411.0"/>
      <point x="325" y="1411.0" type="qcurve" smooth="yes"/>
      <point x="304" y="1411.0" type="line" smooth="yes"/>
      <point x="223" y="1411.0"/>
      <point x="103" y="1319.0"/>
      <point x="101" y="1201.0" type="qcurve" smooth="yes"/>
      <point x="100" y="1121.0" type="line"/>
      <point x="27" y="1110.0" type="line"/>
      <point x="27" y="1206.0" type="line" smooth="yes"/>
      <point x="28" y="1336"/>
      <point x="190.0" y="1506.0"/>
      <point x="292" y="1506.0" type="qcurve" smooth="yes"/>
      <point x="310" y="1506.0" type="line" smooth="yes"/>
      <point x="433.0" y="1506.0"/>
      <point x="608.0" y="1359.0"/>
      <point x="608.0" y="1216" type="qcurve" smooth="yes"/>
      <point x="608.0" y="1172" type="line" smooth="yes"/>
      <point x="608.0" y="1048.0"/>
      <point x="513" y="834"/>
      <point x="461" y="746" type="qcurve" smooth="yes"/>
      <point x="119" y="82" type="line"/>
      <point x="628" y="82.0" type="line"/>
    </contour>
  </outline>
</glyph>
<glyph name="three" format="2">
  <advance width="727"/>
  <unicode hex="0033"/>
  <outline>
    <contour>
      <point x="361" y="783" type="qcurve" smooth="yes"/>
      <point x="217" y="784" type="line"/>
      <point x="217" y="860" type="line"/>
      <point x="329" y="860" type="line" smooth="yes"/>
      <point x="457" y="860"/>
      <point x="544" y="992"/>
      <point x="544" y="1113" type="qcurve" smooth="yes"/>
      <point x="544" y="1237" type="line" smooth="yes"/>
      <point x="544" y="1316"/>
      <point x="428.0" y="1418.0"/>
      <point x="363" y="1418" type="qcurve" smooth="yes"/>
      <point x="352" y="1418" type="line" smooth="yes"/>
      <point x="259.0" y="1418.0"/>
      <point x="154" y="1314"/>
      <point x="155" y="1235" type="qcurve" smooth="yes"/>
      <point x="155" y="1164" type="line"/>
      <point x="71" y="1164" type="line"/>
      <point x="71" y="1254" type="line" smooth="yes"/>
      <point x="71" y="1367"/>
      <point x="236.0" y="1505.0"/>
      <point x="349" y="1505" type="qcurve" smooth="yes"/>
      <point x="359" y="1505" type="line" smooth="yes"/>
      <point x="457.0" y="1505.0"/>
      <point x="628" y="1367"/>
      <point x="628" y="1238" type="qcurve" smooth="yes"/>
      <point x="628" y="1120" type="line" smooth="yes"/>
      <point x="628" y="980"/>
      <point x="545" y="849"/>
      <point x="471" y="826" type="qcurve"/>
      <point x="546" y="810"/>
      <point x="658" y="664"/>
      <point x="658.0" y="532" type="qcurve" smooth="yes"/>
      <point x="658.0" y="347" type="line" smooth="yes"/>
      <point x="658.0" y="191.0"/>
      <point x="492" y="-15"/>
      <point x="358" y="-15" type="qcurve" smooth="yes"/>
      <point x="352" y="-15" type="line" smooth="yes"/>
      <point x="213" y="-15"/>
      <point x="47" y="142"/>
      <point x="47" y="264" type="qcurve" smooth="yes"/>
      <point x="47" y="401" type="line"/>
      <point x="131" y="401" type="line"/>
      <point x="131" y="249" type="line" smooth="yes"/>
      <point x="131" y="176"/>
      <point x="253" y="66"/>
      <point x="343" y="66" type="qcurve" smooth="yes"/>
      <point x="363" y="66" type="line" smooth="yes"/>
      <point x="473.0" y="66.0"/>
      <point x="574" y="238"/>
      <point x="574" y="386" type="qcurve" smooth="yes"/>
      <point x="574" y="526" type="line" smooth="yes"/>
      <point x="574" y="669"/>
      <point x="456" y="782"/>
    </contour>
  </outline>
</glyph>
<glyph name="four" format="2">
  <advance width="706"/>
  <unicode hex="0034"/>
  <outline>
    <contour>
      <point x="430" y="0" type="line"/>
      <point x="430" y="1500" type="line"/>
      <point x="520" y="1497" type="line"/>
      <point x="520" y="2" type="line"/>
    </contour>
    <contour>
      <point x="676" y="497" type="line"/>
      <point x="676" y="418" type="line"/>
      <point x="27" y="418" type="line"/>
      <point x="11" y="510" type="line"/>
      <point x="375" y="1518" type="line"/>
      <point x="450" y="1493" type="line"/>
      <point x="94" y="499" type="line"/>
    </contour>
  </outline>
</glyph>
<glyph name="five" format="2">
  <advance width="744"/>
  <unicode hex="0035"/>
  <outline>
    <contour>
      <point x="407" y="959" type="line" smooth="yes"/>
      <point x="518" y="959"/>
      <point x="667" y="815"/>
      <point x="667" y="647" type="qcurve" smooth="yes"/>
      <point x="667.0" y="325" type="line" smooth="yes"/>
      <point x="667.0" y="153"/>
      <point x="520" y="-16"/>
      <point x="387" y="-16" type="qcurve" smooth="yes"/>
      <point x="371" y="-16.0" type="line" smooth="yes"/>
      <point x="238.0" y="-16"/>
      <point x="81" y="149.0"/>
      <point x="81" y="317" type="qcurve" smooth="yes"/>
      <point x="81" y="414" type="line"/>
      <point x="161" y="414.0" type="line"/>
      <point x="161" y="306.0" type="line" smooth="yes"/>
      <point x="161" y="174"/>
      <point x="274" y="68"/>
      <point x="373" y="68.0" type="qcurve" smooth="yes"/>
      <point x="387" y="68.0" type="line" smooth="yes"/>
      <point x="482" y="68"/>
      <point x="583" y="184"/>
      <point x="583" y="305.0" type="qcurve" smooth="yes"/>
      <point x="583" y="663.0" type="line" smooth="yes"/>
      <point x="583" y="778"/>
      <point x="483.0" y="881.0"/>
      <point x="399" y="881.0" type="qcurve" smooth="yes"/>
      <point x="391" y="881" type="line" smooth="yes"/>
      <point x="304.0" y="881.0"/>
      <point x="197" y="783"/>
      <point x="179" y="721" type="qcurve"/>
      <point x="102" y="722" type="line"/>
      <point x="160" y="1500" type="line"/>
      <point x="628" y="1500" type="line"/>
      <point x="628" y="1418" type="line"/>
      <point x="227" y="1418" type="line"/>
      <point x="183" y="832" type="line"/>
      <point x="201" y="877"/>
      <point x="321" y="959"/>
      <point x="399" y="959" type="qcurve" smooth="yes"/>
    </contour>
  </outline>
</glyph>
<glyph name="six" format="2">
  <advance width="729"/>
  <unicode hex="0036"/>
  <outline>
    <contour>
      <point x="166" y="552" type="qcurve" smooth="yes"/>
      <point x="166" y="451" type="line" smooth="yes"/>
      <point x="166" y="241"/>
      <point x="279" y="66"/>
      <point x="386.0" y="66" type="qcurve" smooth="yes"/>
      <point x="398" y="66" type="line" smooth="yes"/>
      <point x="484" y="66"/>
      <point x="573" y="196"/>
      <point x="573" y="357" type="qcurve" smooth="yes"/>
      <point x="573" y="618" type="line" smooth="yes"/>
      <point x="573.0" y="754"/>
      <point x="488" y="850"/>
      <point x="411" y="850.0" type="qcurve" smooth="yes"/>
      <point x="399" y="850.0" type="line" smooth="yes"/>
      <point x="301" y="850"/>
      <point x="164.0" y="664.0"/>
      <point x="164" y="519" type="qcurve" smooth="yes"/>
      <point x="165" y="502" type="line"/>
      <point x="116" y="505" type="line"/>
      <point x="116" y="557" type="line" smooth="yes"/>
      <point x="116" y="745"/>
      <point x="293.0" y="933.0"/>
      <point x="416" y="933.0" type="qcurve" smooth="yes"/>
      <point x="424" y="933.0" type="line" smooth="yes"/>
      <point x="522" y="933"/>
      <point x="656.0" y="803"/>
      <point x="656" y="650" type="qcurve" smooth="yes"/>
      <point x="656" y="311" type="line" smooth="yes"/>
      <point x="656" y="147"/>
      <point x="510" y="-17"/>
      <point x="403" y="-17" type="qcurve" smooth="yes"/>
      <point x="385" y="-17.0" type="line" smooth="yes"/>
      <point x="243" y="-17"/>
      <point x="87" y="203"/>
      <point x="87.0" y="506" type="qcurve" smooth="yes"/>
      <point x="87" y="630" type="line" smooth="yes"/>
      <point x="87" y="1128.0"/>
      <point x="323.0" y="1513.0"/>
      <point x="560" y="1513" type="qcurve" smooth="yes"/>
      <point x="583" y="1513" type="line"/>
      <point x="583" y="1440" type="line"/>
      <point x="571" y="1440" type="line" smooth="yes"/>
      <point x="355.0" y="1440.0"/>
      <point x="166" y="1087"/>
    </contour>
  </outline>
</glyph>
<glyph name="seven" format="2">
  <advance width="597"/>
  <unicode hex="0037"/>
  <outline>
    <contour>
      <point x="13" y="1500" type="line"/>
      <point x="594" y="1500" type="line"/>
      <point x="601" y="1466" type="line"/>
      <point x="218" y="0" type="line"/>
      <point x="133" y="0" type="line"/>
      <point x="506" y="1418" type="line"/>
      <point x="13" y="1418" type="line"/>
    </contour>
  </outline>
</glyph>
<glyph name="eight" format="2">
  <advance width="730"/>
  <unicode hex="0038"/>
  <outline>
    <contour>
      <point x="363" y="-16" type="line" smooth="yes"/>
      <point x="213.0" y="-16"/>
      <point x="22" y="188"/>
      <point x="22" y="390" type="qcurve" smooth="yes"/>
      <point x="22" y="454" type="line" smooth="yes"/>
      <point x="22" y="631.0"/>
      <point x="228.0" y="842.0"/>
      <point x="357" y="842" type="qcurve" smooth="yes"/>
      <point x="362" y="842" type="line" smooth="yes"/>
      <point x="496.0" y="842.0"/>
      <point x="708.0" y="631.0"/>
      <point x="708" y="454" type="qcurve" smooth="yes"/>
      <point x="708" y="392" type="line" smooth="yes"/>
      <point x="708" y="188"/>
      <point x="521.0" y="-16.0"/>
      <point x="368" y="-16" type="qcurve" smooth="yes"/>
    </contour>
    <contour>
      <point x="369" y="67.0" type="line" smooth="yes"/>
      <point x="485.0" y="67.0"/>
      <point x="619" y="216"/>
      <point x="619" y="374.0" type="qcurve" smooth="yes"/>
      <point x="619" y="468.0" type="line" smooth="yes"/>
      <point x="619" y="624"/>
      <point x="480.0" y="782.0"/>
      <point x="361" y="782.0" type="qcurve" smooth="yes"/>
      <point x="363" y="782.0" type="line" smooth="yes"/>
      <point x="243.0" y="782.0"/>
      <point x="111" y="624"/>
      <point x="111" y="468.0" type="qcurve" smooth="yes"/>
      <point x="111" y="374.0" type="line" smooth="yes"/>
      <point x="111" y="216"/>
      <point x="249.0" y="67.0"/>
      <point x="363" y="67.0" type="qcurve" smooth="yes"/>
    </contour>
    <contour>
      <point x="362" y="783" type="line" smooth="yes"/>
      <point x="260" y="783"/>
      <point x="111" y="940"/>
      <point x="111" y="1078" type="qcurve" smooth="yes"/>
      <point x="111" y="1196" type="line" smooth="yes"/>
      <point x="111" y="1360.0"/>
      <point x="258" y="1502"/>
      <point x="359" y="1502" type="qcurve" smooth="yes"/>
      <point x="363" y="1502" type="line" smooth="yes"/>
      <point x="468" y="1502"/>
      <point x="621.0" y="1360.0"/>
      <point x="621" y="1193" type="qcurve" smooth="yes"/>
      <point x="621" y="1073" type="line" smooth="yes"/>
      <point x="621" y="939"/>
      <point x="471.0" y="783.0"/>
      <point x="363" y="783" type="qcurve" smooth="yes"/>
    </contour>
    <contour>
      <point x="363.0" y="855.0" type="line" smooth="yes"/>
      <point x="451.0" y="855.0"/>
      <point x="533" y="973"/>
      <point x="533.0" y="1068" type="qcurve" smooth="yes"/>
      <point x="533.0" y="1193" type="line" smooth="yes"/>
      <point x="533" y="1301"/>
      <point x="443.0" y="1416.0"/>
      <point x="363.0" y="1416.0" type="qcurve" smooth="yes"/>
      <point x="360.0" y="1416.0" type="line" smooth="yes"/>
      <point x="284.0" y="1416.0"/>
      <point x="199" y="1301.0"/>
      <point x="199.0" y="1193" type="qcurve" smooth="yes"/>
      <point x="199.0" y="1068" type="line" smooth="yes"/>
      <point x="199.0" y="973.0"/>
      <point x="273.0" y="855.0"/>
      <point x="360.0" y="855.0" type="qcurve" smooth="yes"/>
    </contour>
  </outline>
</glyph>
<glyph name="nine" format="2">
  <advance width="729"/>
  <unicode hex="0039"/>
  <outline>
    <contour>
      <point x="563.0" y="935.0" type="qcurve" smooth="yes"/>
      <point x="563.0" y="1036.0" type="line" smooth="yes"/>
      <point x="563.0" y="1246.0"/>
      <point x="450" y="1419"/>
      <point x="343.0" y="1419.0" type="qcurve" smooth="yes"/>
      <point x="331.0" y="1419.0" type="line" smooth="yes"/>
      <point x="245" y="1419"/>
      <point x="156.0" y="1291.0"/>
      <point x="156.0" y="1130.0" type="qcurve" smooth="yes"/>
      <point x="156.0" y="869.0" type="line" smooth="yes"/>
      <point x="156.0" y="733.0"/>
      <point x="241" y="635"/>
      <point x="318.0" y="635.0" type="qcurve" smooth="yes"/>
      <point x="330.0" y="635.0" type="line" smooth="yes"/>
      <point x="428" y="635"/>
      <point x="565.0" y="823.0"/>
      <point x="565.0" y="968.0" type="qcurve" smooth="yes"/>
      <point x="564.0" y="985.0" type="line"/>
      <point x="613.0" y="982.0" type="line"/>
      <point x="613.0" y="930.0" type="line" smooth="yes"/>
      <point x="613.0" y="748.0"/>
      <point x="436" y="556"/>
      <point x="313.0" y="556.0" type="qcurve" smooth="yes"/>
      <point x="305.0" y="556.0" type="line" smooth="yes"/>
      <point x="207" y="556"/>
      <point x="73.0" y="684.0"/>
      <point x="73.0" y="837.0" type="qcurve" smooth="yes"/>
      <point x="73.0" y="1176.0" type="line" smooth="yes"/>
      <point x="73.0" y="1340.0"/>
      <point x="219.0" y="1504.0"/>
      <point x="326.0" y="1504.0" type="qcurve" smooth="yes"/>
      <point x="344.0" y="1504.0" type="line" smooth="yes"/>
      <point x="486.0" y="1504.0"/>
      <point x="642.0" y="1284.0"/>
      <point x="642.0" y="981.0" type="qcurve" smooth="yes"/>
      <point x="642.0" y="857.0" type="line" smooth="yes"/>
      <point x="642.0" y="359.0"/>
      <point x="405" y="0.0"/>
      <point x="169.0" y="0.0" type="qcurve" smooth="yes"/>
      <point x="146.0" y="0.0" type="line"/>
      <point x="146.0" y="73.0" type="line"/>
      <point x="158.0" y="73.0" type="line" smooth="yes"/>
      <point x="374" y="73"/>
      <point x="563.0" y="400.0"/>
    </contour>
  </outline>
</glyph>
<glyph name="colon" format="2">
  <advance width="450"/>
  <unicode hex="003A"/>
  <outline>
    <contour>
      <point x="223" y="-9" type="line" smooth="yes"/>
      <point x="260" y="-9"/>
      <point x="303" y="33"/>
      <point x="303" y="68" type="qcurve" smooth="yes"/>
      <point x="303" y="73" type="line" smooth="yes"/>
      <point x="303" y="107"/>
      <point x="261" y="150"/>
      <point x="223" y="150" type="qcurve" smooth="yes"/>
      <point x="222" y="150" type="line" smooth="yes"/>
      <point x="187" y="150"/>
      <point x="146" y="107"/>
      <point x="146" y="73" type="qcurve" smooth="yes"/>
      <point x="146" y="68" type="line" smooth="yes"/>
      <point x="146" y="33"/>
      <point x="186" y="-9"/>
      <point x="222" y="-9" type="qcurve" smooth="yes"/>
    </contour>
    <contour>
      <point x="223" y="791" type="line" smooth="yes"/>
      <point x="260" y="791"/>
      <point x="303" y="833"/>
      <point x="303" y="868" type="qcurve" smooth="yes"/>
      <point x="303" y="873" type="line" smooth="yes"/>
      <point x="303" y="907"/>
      <point x="261" y="950"/>
      <point x="223" y="950" type="qcurve" smooth="yes"/>
      <point x="222" y="950" type="line" smooth="yes"/>
      <point x="187" y="950"/>
      <point x="146" y="907"/>
      <point x="146" y="873" type="qcurve" smooth="yes"/>
      <point x="146" y="868" type="line" smooth="yes"/>
      <point x="146" y="833"/>
      <point x="186" y="791"/>
      <point x="222" y="791" type="qcurve" smooth="yes"/>
    </contour>
  </outline>
</glyph>
<glyph name="less" format="2">
  <advance width="250"/>
  <unicode hex="003C"/>
  <outline>
    <contour>
      <point x="-192.0" y="674.0" type="line"/>
      <point x="-192.0" y="785.0" type="line"/>
      <point x="448.0" y="1166.0" type="line"/>
      <point x="448.0" y="1043.0" type="line"/>
      <point x="-114.0" y="738.0" type="line"/>
      <point x="448.0" y="381.0" type="line"/>
      <point x="448.0" y="270.0" type="line"/>
    </contour>
  </outline>
</glyph>
<glyph name="question" format="2">
  <advance width="606"/>
  <unicode hex="003F"/>
  <outline>
    <contour>
      <point x="260" y="-9" type="line" smooth="yes"/>
      <point x="295" y="-9"/>
      <point x="333" y="31"/>
      <point x="333" y="63" type="qcurve" smooth="yes"/>
      <point x="333" y="68" type="line" smooth="yes"/>
      <point x="333" y="100"/>
      <point x="295" y="141"/>
      <point x="260" y="141" type="qcurve" smooth="yes"/>
      <point x="257" y="141" type="line" smooth="yes"/>
      <point x="225" y="141"/>
      <point x="188" y="100"/>
      <point x="188" y="68" type="qcurve" smooth="yes"/>
      <point x="188" y="63" type="line" smooth="yes"/>
      <point x="188" y="30"/>
      <point x="224" y="-9"/>
      <point x="257" y="-9" type="qcurve" smooth="yes"/>
    </contour>
    <contour>
      <point x="296" y="345" type="line"/>
      <point x="206" y="345" type="line"/>
      <point x="206" y="806" type="line"/>
      <point x="323" y="815"/>
      <point x="484.0" y="1010.0"/>
      <point x="484.0" y="1176.0" type="qcurve" smooth="yes"/>
      <point x="484.0" y="1216.0" type="line" smooth="yes"/>
      <point x="484.0" y="1349.0"/>
      <point x="394.0" y="1432.0"/>
      <point x="310.0" y="1432.0" type="qcurve" smooth="yes"/>
      <point x="285" y="1432" type="line" smooth="yes"/>
      <point x="209" y="1432"/>
      <point x="114.0" y="1332"/>
      <point x="115" y="1212" type="qcurve" smooth="yes"/>
      <point x="116" y="1120" type="line"/>
      <point x="24" y="1120" type="line"/>
      <point x="24" y="1201" type="line" smooth="yes"/>
      <point x="24" y="1343"/>
      <point x="163" y="1523"/>
      <point x="289" y="1523" type="qcurve" smooth="yes"/>
      <point x="320.0" y="1523" type="line" smooth="yes"/>
      <point x="448.0" y="1523.0"/>
      <point x="579.0" y="1391.0"/>
      <point x="579.0" y="1221.0" type="qcurve" smooth="yes"/>
      <point x="579.0" y="1140.0" type="line" smooth="yes"/>
      <point x="579.0" y="963.0"/>
      <point x="431.0" y="779"/>
      <point x="296.0" y="755" type="qcurve"/>
    </contour>
  </outline>
</glyph>
<glyph name="A" format="2">
  <advance width="710"/>
  <unicode hex="0041"/>
  <outline>
    <contour>
      <point x="550" y="470" type="line"/>
      <point x="160" y="470" type="line"/>
      <point x="160" y="547" type="line"/>
      <point x="550" y="547" type="line"/>
    </contour>
    <contour>
      <point x="420" y="1500" type="line"/>
      <point x="680" y="0" type="line"/>
      <point x="589" y="0" type="line"/>
      <point x="355" y="1405" type="line"/>
      <point x="351" y="1405" type="line"/>
      <point x="113" y="0" type="line"/>
      <point x="30" y="0" type="line"/>
      <point x="290" y="1500" type="line"/>
    </contour>
  </outline>
</glyph>
<glyph name="B" format="2">
  <advance width="749"/>
  <unicode hex="0042"/>
  <outline>
    <contour>
      <point x="116" y="0" type="line"/>
      <point x="116" y="1500" type="line"/>
      <point x="207" y="1500" type="line"/>
      <point x="207" y="0" type="line"/>
    </contour>
    <contour>
      <point x="301" y="811" type="line"/>
      <point x="504" y="811"/>
      <point x="675" y="648"/>
      <point x="675.0" y="494" type="qcurve" smooth="yes"/>
      <point x="675.0" y="326" type="line" smooth="yes"/>
      <point x="675" y="166"/>
      <point x="509.0" y="0.0"/>
      <point x="355" y="0" type="qcurve" smooth="yes"/>
      <point x="164" y="0" type="line"/>
      <point x="164" y="85" type="line"/>
      <point x="347" y="85" type="line" smooth="yes"/>
      <point x="465.0" y="85.0"/>
      <point x="580" y="227"/>
      <point x="580" y="341" type="qcurve" smooth="yes"/>
      <point x="580" y="468" type="line" smooth="yes"/>
      <point x="580" y="598"/>
      <point x="461.0" y="740.0"/>
      <point x="341" y="740" type="qcurve" smooth="yes"/>
      <point x="164" y="740" type="line"/>
      <point x="164" y="816" type="line"/>
      <point x="347" y="816" type="line" smooth="yes"/>
      <point x="450.0" y="816.0"/>
      <point x="544" y="922"/>
      <point x="544.0" y="1023" type="qcurve" smooth="yes"/>
      <point x="544.0" y="1236" type="line" smooth="yes"/>
      <point x="544" y="1336"/>
      <point x="433.0" y="1415.0"/>
      <point x="364" y="1415" type="qcurve" smooth="yes"/>
      <point x="164" y="1415" type="line"/>
      <point x="164" y="1500" type="line"/>
      <point x="334" y="1500" type="line" smooth="yes"/>
      <point x="495.0" y="1500.0"/>
      <point x="637" y="1354"/>
      <point x="637.0" y="1226" type="qcurve" smooth="yes"/>
      <point x="637" y="1038" type="line" smooth="yes"/>
      <point x="637" y="895"/>
      <point x="473.0" y="740.0"/>
      <point x="246" y="740" type="qcurve"/>
    </contour>
  </outline>
</glyph>
<glyph name="C" format="2">
  <advance width="736"/>
  <unicode hex="0043"/>
  <outline>
    <contour>
      <point x="396" y="75" type="line" smooth="yes"/>
      <point x="490" y="75"/>
      <point x="578" y="229"/>
      <point x="578" y="325" type="qcurve" smooth="yes"/>
      <point x="577" y="537" type="line"/>
      <point x="671" y="542" type="line"/>
      <point x="671" y="299" type="line" smooth="yes"/>
      <point x="671.0" y="164.0"/>
      <point x="515" y="-12"/>
      <point x="406" y="-12" type="qcurve" smooth="yes"/>
      <point x="382" y="-12" type="line" smooth="yes"/>
      <point x="257" y="-12"/>
      <point x="92" y="164"/>
      <point x="92" y="333" type="qcurve" smooth="yes"/>
      <point x="92" y="1150" type="line" smooth="yes"/>
      <point x="92" y="1328.0"/>
      <point x="259" y="1510"/>
      <point x="372" y="1510" type="qcurve" smooth="yes"/>
      <point x="390" y="1510" type="line" smooth="yes"/>
      <point x="522" y="1510"/>
      <point x="669" y="1334"/>
      <point x="668" y="1211" type="qcurve" smooth="yes"/>
      <point x="667" y="967" type="line"/>
      <point x="578" y="967" type="line"/>
      <point x="578" y="1183" type="line" smooth="yes"/>
      <point x="578.0" y="1290.0"/>
      <point x="477" y="1419"/>
      <point x="385" y="1419.0" type="qcurve" smooth="yes"/>
      <point x="378" y="1419.0" type="line" smooth="yes"/>
      <point x="289" y="1419"/>
      <point x="185" y="1298"/>
      <point x="185" y="1182" type="qcurve" smooth="yes"/>
      <point x="185" y="301" type="line" smooth="yes"/>
      <point x="185.0" y="199.0"/>
      <point x="286" y="75"/>
      <point x="387" y="75" type="qcurve" smooth="yes"/>
    </contour>
  </outline>
</glyph>
<glyph name="D" format="2">
  <advance width="763"/>
  <unicode hex="0044"/>
  <outline>
    <contour>
      <point x="116" y="0" type="line"/>
      <point x="116" y="1500" type="line"/>
      <point x="206" y="1500" type="line"/>
      <point x="206" y="0" type="line"/>
    </contour>
    <contour>
      <point x="372" y="84" type="line" smooth="yes"/>
      <point x="472.0" y="84.0"/>
      <point x="577" y="211"/>
      <point x="577" y="309" type="qcurve" smooth="yes"/>
      <point x="577" y="1195" type="line" smooth="yes"/>
      <point x="577" y="1287"/>
      <point x="475.0" y="1416.0"/>
      <point x="374" y="1416" type="qcurve" smooth="yes"/>
      <point x="162" y="1416" type="line"/>
      <point x="162" y="1500" type="line"/>
      <point x="363" y="1500" type="line" smooth="yes"/>
      <point x="520.0" y="1500.0"/>
      <point x="671" y="1303"/>
      <point x="671" y="1120" type="qcurve" smooth="yes"/>
      <point x="671" y="385" type="line" smooth="yes"/>
      <point x="671" y="197"/>
      <point x="518.0" y="0.0"/>
      <point x="386" y="0" type="qcurve" smooth="yes"/>
      <point x="162" y="0" type="line"/>
      <point x="162" y="84" type="line"/>
    </contour>
  </outline>
</glyph>
<glyph name="E" format="2">
  <advance width="614"/>
  <unicode hex="0045"/>
  <outline>
    <contour>
      <point x="116" y="0" type="line"/>
      <point x="116" y="1500" type="line"/>
      <point x="206" y="1500" type="line"/>
      <point x="206" y="0" type="line"/>
    </contour>
    <contour>
      <point x="526" y="752" type="line"/>
      <point x="157" y="752" type="line"/>
      <point x="157" y="836" type="line"/>
      <point x="526" y="836" type="line"/>
    </contour>
    <contour>
      <point x="586" y="1416" type="line"/>
      <point x="157" y="1416" type="line"/>
      <point x="157" y="1500" type="line"/>
      <point x="586" y="1500" type="line"/>
    </contour>
    <contour>
      <point x="586" y="0" type="line"/>
      <point x="157" y="0" type="line"/>
      <point x="157" y="84" type="line"/>
      <point x="586" y="84" type="line"/>
    </contour>
  </outline>
</glyph>
<glyph name="F" format="2">
  <advance width="540"/>
  <unicode hex="0046"/>
  <outline>
    <contour>
      <point x="116" y="0" type="line"/>
      <point x="116" y="1500" type="line"/>
      <point x="206" y="1500" type="line"/>
      <point x="206" y="0" type="line"/>
    </contour>
    <contour>
      <point x="506" y="738" type="line"/>
      <point x="156" y="738" type="line"/>
      <point x="156" y="822" type="line"/>
      <point x="506" y="822" type="line"/>
    </contour>
    <contour>
      <point x="536" y="1416" type="line"/>
      <point x="156" y="1416" type="line"/>
      <point x="156" y="1500" type="line"/>
      <point x="536" y="1500" type="line"/>
    </contour>
  </outline>
</glyph>
<glyph name="G" format="2">
  <advance width="719"/>
  <unicode hex="0047"/>
  <outline>
    <contour>
      <point x="398" y="75.0" type="line" smooth="yes"/>
      <point x="493" y="75"/>
      <point x="579" y="204"/>
      <point x="577" y="327" type="qcurve" smooth="yes"/>
      <point x="574" y="701.0" type="line"/>
      <point x="389" y="701.0" type="line"/>
      <point x="389" y="785.0" type="line"/>
      <point x="669" y="785.0" type="line"/>
      <point x="669.0" y="279" type="line" smooth="yes"/>
      <point x="669" y="148"/>
      <point x="515" y="-11"/>
      <point x="403" y="-11.0" type="qcurve" smooth="yes"/>
      <point x="382" y="-11.0" type="line" smooth="yes"/>
      <point x="255" y="-11"/>
      <point x="92" y="161"/>
      <point x="92" y="337.0" type="qcurve" smooth="yes"/>
      <point x="92" y="1150.0" type="line" smooth="yes"/>
      <point x="92" y="1328.0"/>
      <point x="259" y="1511"/>
      <point x="377" y="1511.0" type="qcurve" smooth="yes"/>
      <point x="385" y="1511.0" type="line" smooth="yes"/>
      <point x="522" y="1511"/>
      <point x="661.0" y="1344"/>
      <point x="661" y="1211.0" type="qcurve" smooth="yes"/>
      <point x="661" y="1007.0" type="line"/>
      <point x="571" y="1007.0" type="line"/>
      <point x="571" y="1175.0" type="line" smooth="yes"/>
      <point x="571" y="1286"/>
      <point x="477" y="1420"/>
      <point x="383" y="1420.0" type="qcurve" smooth="yes"/>
      <point x="374" y="1420.0" type="line" smooth="yes"/>
      <point x="288" y="1420"/>
      <point x="186.0" y="1302.0"/>
      <point x="186" y="1188.0" type="qcurve" smooth="yes"/>
      <point x="186" y="306.0" type="line" smooth="yes"/>
      <point x="186" y="203"/>
      <point x="286" y="75"/>
      <point x="382" y="75.0" type="qcurve" smooth="yes"/>
    </contour>
  </outline>
</glyph>
<glyph name="H" format="2">
  <advance width="762"/>
  <unicode hex="0048"/>
  <outline>
    <contour>
      <point x="116" y="0" type="line"/>
      <point x="116" y="1500" type="line"/>
      <point x="206" y="1500" type="line"/>
      <point x="206" y="0" type="line"/>
    </contour>
    <contour>
      <point x="556" y="0" type="line"/>
      <point x="556" y="1500" type="line"/>
      <point x="646" y="1500" type="line"/>
      <point x="646" y="0" type="line"/>
    </contour>
    <contour>
      <point x="606" y="754" type="line"/>
      <point x="156" y="754" type="line"/>
      <point x="156" y="834" type="line"/>
      <point x="606" y="834" type="line"/>
    </contour>
  </outline>
</glyph>
<glyph name="I" format="2">
  <advance width="418"/>
  <unicode hex="0049"/>
  <outline>
    <contour>
      <point x="162" y="0" type="line"/>
      <point x="162" y="1500" type="line"/>
      <point x="256" y="1500" type="line"/>
      <point x="256" y="0" type="line"/>
    </contour>
    <contour>
      <point x="96" y="0" type="line"/>
      <point x="96" y="84" type="line"/>
      <point x="323" y="84" type="line"/>
      <point x="323" y="0" type="line"/>
    </contour>
    <contour>
      <point x="95" y="1416" type="line"/>
      <point x="95" y="1500" type="line"/>
      <point x="323" y="1500" type="line"/>
      <point x="323" y="1416" type="line"/>
    </contour>
  </outline>
</glyph>
<glyph name="J" format="2">
  <advance width="736"/>
  <unicode hex="004A"/>
  <outline>
    <contour>
      <point x="636.0" y="324.0" type="line" smooth="yes"/>
      <point x="636" y="147"/>
      <point x="483" y="-12"/>
      <point x="353" y="-12" type="qcurve" smooth="yes"/>
      <point x="348" y="-12" type="line" smooth="yes"/>
      <point x="209" y="-12"/>
      <point x="40" y="138.0"/>
      <point x="40" y="280" type="qcurve" smooth="yes"/>
      <point x="40" y="352" type="line"/>
      <point x="132" y="352" type="line"/>
      <point x="132" y="305" type="line" smooth="yes"/>
      <point x="132" y="193.0"/>
      <point x="234" y="75"/>
      <point x="339" y="75" type="qcurve" smooth="yes"/>
      <point x="353" y="75" type="line" smooth="yes"/>
      <point x="450" y="75"/>
      <point x="545" y="193"/>
      <point x="546.0" y="302.0" type="qcurve" smooth="yes"/>
      <point x="546" y="1500" type="line"/>
      <point x="636" y="1500" type="line"/>
    </contour>
  </outline>
</glyph>
<glyph name="K" format="2">
  <advance width="735"/>
  <unicode hex="004B"/>
  <outline>
    <contour>
      <point x="116" y="0" type="line"/>
      <point x="116" y="1500" type="line"/>
      <point x="206" y="1500" type="line"/>
      <point x="206" y="0" type="line"/>
    </contour>
    <contour>
      <point x="192" y="664" type="line"/>
      <point x="293" y="860" type="line"/>
      <point x="607" y="1500" type="line"/>
      <point x="697" y="1500" type="line"/>
      <point x="353" y="797" type="line"/>
      <point x="334" y="778" type="line"/>
      <point x="194" y="514" type="line"/>
    </contour>
    <contour>
      <point x="285" y="786" type="line"/>
      <point x="339" y="880" type="line"/>
      <point x="747" y="0" type="line"/>
      <point x="647" y="0" type="line"/>
    </contour>
  </outline>
</glyph>
<glyph name="L" format="2">
  <advance width="539"/>
  <unicode hex="004C"/>
  <outline>
    <contour>
      <point x="116" y="0" type="line"/>
      <point x="116" y="1500" type="line"/>
      <point x="206" y="1500" type="line"/>
      <point x="206" y="0" type="line"/>
    </contour>
    <contour>
      <point x="528" y="0" type="line"/>
      <point x="166" y="0" type="line"/>
      <point x="166" y="84" type="line"/>
      <point x="528" y="84" type="line"/>
    </contour>
  </outline>
</glyph>
<glyph name="M" format="2">
  <advance width="968"/>
  <unicode hex="004D"/>
  <outline>
    <contour>
      <point x="116" y="0" type="line"/>
      <point x="116" y="1500" type="line"/>
      <point x="209" y="1500" type="line"/>
      <point x="482" y="195" type="line"/>
      <point x="485" y="195" type="line"/>
      <point x="754" y="1500" type="line"/>
      <point x="852" y="1500" type="line"/>
      <point x="852" y="0" type="line"/>
      <point x="766" y="0" type="line"/>
      <point x="766" y="1135" type="line"/>
      <point x="519" y="0" type="line"/>
      <point x="441" y="0" type="line"/>
      <point x="201" y="1135" type="line"/>
      <point x="201" y="0" type="line"/>
    </contour>
  </outline>
</glyph>
<glyph name="N" format="2">
  <advance width="731"/>
  <unicode hex="004E"/>
  <outline>
    <contour>
      <point x="116" y="0" type="line"/>
      <point x="116" y="1500" type="line"/>
      <point x="194" y="1500" type="line"/>
      <point x="531" y="311" type="line"/>
      <point x="531" y="1500" type="line"/>
      <point x="615" y="1500" type="line"/>
      <point x="615" y="0" type="line"/>
      <point x="534" y="0" type="line"/>
      <point x="534" y="23" type="line"/>
      <point x="200" y="1198" type="line"/>
      <point x="200" y="0" type="line"/>
    </contour>
  </outline>
</glyph>
<glyph name="O" format="2">
  <advance width="763"/>
  <unicode hex="004F"/>
  <outline>
    <contour>
      <point x="381" y="-11.0" type="line" smooth="yes"/>
      <point x="254" y="-11"/>
      <point x="92" y="170"/>
      <point x="92" y="346" type="qcurve" smooth="yes"/>
      <point x="92" y="1149" type="line" smooth="yes"/>
      <point x="92" y="1333.0"/>
      <point x="258" y="1511"/>
      <point x="379" y="1511.0" type="qcurve" smooth="yes"/>
      <point x="382" y="1511.0" type="line" smooth="yes"/>
      <point x="515" y="1511"/>
      <point x="671.0" y="1333.0"/>
      <point x="671" y="1168.0" type="qcurve" smooth="yes"/>
      <point x="671" y="334.0" type="line" smooth="yes"/>
      <point x="671" y="170"/>
      <point x="516" y="-11"/>
      <point x="384" y="-11.0" type="qcurve" smooth="yes"/>
    </contour>
    <contour>
      <point x="383.0" y="75" type="line" smooth="yes"/>
      <point x="476" y="75"/>
      <point x="578" y="215"/>
      <point x="578.0" y="326" type="qcurve" smooth="yes"/>
      <point x="578.0" y="1171" type="line" smooth="yes"/>
      <point x="578.0" y="1286.0"/>
      <point x="478" y="1419"/>
      <point x="383.0" y="1419.0" type="qcurve" smooth="yes"/>
      <point x="379.0" y="1419.0" type="line" smooth="yes"/>
      <point x="288" y="1419"/>
      <point x="185.0" y="1306.0"/>
      <point x="185.0" y="1184" type="qcurve" smooth="yes"/>
      <point x="185.0" y="318" type="line" smooth="yes"/>
      <point x="185" y="215"/>
      <point x="277" y="75"/>
      <point x="379.0" y="75" type="qcurve" smooth="yes"/>
    </contour>
  </outline>
</glyph>
<glyph name="P" format="2">
  <advance width="759"/>
  <unicode hex="0050"/>
  <outline>
    <contour>
      <point x="116" y="0" type="line"/>
      <point x="116" y="1500" type="line"/>
      <point x="205" y="1500" type="line"/>
      <point x="205" y="0" type="line"/>
    </contour>
    <contour>
      <point x="383" y="671" type="qcurve" smooth="yes"/>
      <point x="158" y="671" type="line"/>
      <point x="158" y="755" type="line"/>
      <point x="425" y="755.0" type="line" smooth="yes"/>
      <point x="505" y="755.0"/>
      <point x="583.0" y="849"/>
      <point x="583.0" y="986" type="qcurve" smooth="yes"/>
      <point x="583.0" y="1192" type="line" smooth="yes"/>
      <point x="583.0" y="1303.0"/>
      <point x="499" y="1416.0"/>
      <point x="414" y="1416.0" type="qcurve" smooth="yes"/>
      <point x="158" y="1416" type="line"/>
      <point x="158" y="1500" type="line"/>
      <point x="435" y="1500.0" type="line" smooth="yes"/>
      <point x="556.0" y="1500.0"/>
      <point x="676.0" y="1357.0"/>
      <point x="676.0" y="1233" type="qcurve" smooth="yes"/>
      <point x="676.0" y="947" type="line" smooth="yes"/>
      <point x="676.0" y="798.0"/>
      <point x="542.0" y="671.0"/>
    </contour>
  </outline>
</glyph>
<glyph name="Q" format="2">
  <advance width="763"/>
  <unicode hex="0051"/>
  <outline>
    <contour>
      <point x="381" y="2.0" type="line" smooth="yes"/>
      <point x="254" y="2"/>
      <point x="92" y="173"/>
      <point x="92" y="349" type="qcurve" smooth="yes"/>
      <point x="92" y="1149" type="line" smooth="yes"/>
      <point x="92" y="1333.0"/>
      <point x="258" y="1511"/>
      <point x="379" y="1511.0" type="qcurve" smooth="yes"/>
      <point x="382" y="1511.0" type="line" smooth="yes"/>
      <point x="515" y="1511"/>
      <point x="671.0" y="1333.0"/>
      <point x="671" y="1168.0" type="qcurve" smooth="yes"/>
      <point x="671" y="337.0" type="line" smooth="yes"/>
      <point x="671" y="173"/>
      <point x="516" y="2"/>
      <point x="384" y="2.0" type="qcurve" smooth="yes"/>
    </contour>
    <contour>
      <point x="383.0" y="83" type="line" smooth="yes"/>
      <point x="476" y="83"/>
      <point x="578" y="218"/>
      <point x="578.0" y="329" type="qcurve" smooth="yes"/>
      <point x="578.0" y="1171" type="line" smooth="yes"/>
      <point x="578.0" y="1286.0"/>
      <point x="478" y="1419"/>
      <point x="383.0" y="1419.0" type="qcurve" smooth="yes"/>
      <point x="379.0" y="1419.0" type="line" smooth="yes"/>
      <point x="288" y="1419"/>
      <point x="185.0" y="1306.0"/>
      <point x="185.0" y="1184" type="qcurve" smooth="yes"/>
      <point x="185.0" y="321" type="line" smooth="yes"/>
      <point x="185" y="218"/>
      <point x="277" y="83"/>
      <point x="379.0" y="83" type="qcurve" smooth="yes"/>
    </contour>
    <contour>
      <point x="334" y="68" type="line"/>
      <point x="766" y="53" type="line"/>
      <point x="766" y="-42" type="line"/>
      <point x="334" y="8" type="line"/>
    </contour>
  </outline>
</glyph>
<glyph name="R" format="2">
  <advance width="784"/>
  <unicode hex="0052"/>
  <outline>
    <contour>
      <point x="116" y="0" type="line"/>
      <point x="116" y="1500" type="line"/>
      <point x="206" y="1500" type="line"/>
      <point x="206" y="0" type="line"/>
    </contour>
    <contour>
      <point x="466" y="693" type="qcurve" smooth="yes"/>
      <point x="166" y="693" type="line"/>
      <point x="166" y="777" type="line"/>
      <point x="418" y="777" type="line" smooth="yes"/>
      <point x="498" y="777"/>
      <point x="589" y="862"/>
      <point x="589.0" y="965" type="qcurve" smooth="yes"/>
      <point x="589.0" y="1220" type="line" smooth="yes"/>
      <point x="589" y="1342"/>
      <point x="502" y="1411.0"/>
      <point x="420" y="1411" type="qcurve" smooth="yes"/>
      <point x="166" y="1411" type="line"/>
      <point x="166" y="1500" type="line"/>
      <point x="424" y="1500" type="line" smooth="yes"/>
      <point x="548.0" y="1500.0"/>
      <point x="682" y="1388"/>
      <point x="682.0" y="1247" type="qcurve" smooth="yes"/>
      <point x="682.0" y="948" type="line" smooth="yes"/>
      <point x="682.0" y="823.0"/>
      <point x="574" y="697"/>
    </contour>
    <contour>
      <point x="545" y="726" type="line"/>
      <point x="769" y="0" type="line"/>
      <point x="671" y="0" type="line"/>
      <point x="449" y="721" type="line"/>
    </contour>
  </outline>
</glyph>
<glyph name="S" format="2">
  <advance width="742"/>
  <unicode hex="0053"/>
  <outline>
    <contour>
      <point x="596.0" y="353" type="line" smooth="yes"/>
      <point x="596.0" y="508.0"/>
      <point x="476" y="677"/>
      <point x="336" y="763" type="qcurve" smooth="yes"/>
      <point x="197" y="848"/>
      <point x="68" y="1026"/>
      <point x="68" y="1192" type="qcurve" smooth="yes"/>
      <point x="68" y="1222" type="line" smooth="yes"/>
      <point x="68" y="1357"/>
      <point x="256" y="1510"/>
      <point x="366" y="1510.0" type="qcurve" smooth="yes"/>
      <point x="371" y="1510.0" type="line" smooth="yes"/>
      <point x="495" y="1510"/>
      <point x="663" y="1365"/>
      <point x="664" y="1252" type="qcurve" smooth="yes"/>
      <point x="664" y="1106" type="line"/>
      <point x="571" y="1106.0" type="line"/>
      <point x="571.0" y="1229" type="line" smooth="yes"/>
      <point x="571" y="1314"/>
      <point x="464" y="1418"/>
      <point x="372.0" y="1418" type="qcurve" smooth="yes"/>
      <point x="363" y="1418.0" type="line" smooth="yes"/>
      <point x="269" y="1418"/>
      <point x="161" y="1305"/>
      <point x="161.0" y="1212" type="qcurve" smooth="yes"/>
      <point x="161.0" y="1197" type="line" smooth="yes"/>
      <point x="161" y="1083.0"/>
      <point x="246" y="930"/>
      <point x="401" y="832" type="qcurve" smooth="yes"/>
      <point x="544" y="741"/>
      <point x="690.0" y="537.0"/>
      <point x="690.0" y="360.0" type="qcurve" smooth="yes"/>
      <point x="690.0" y="344.0" type="line" smooth="yes"/>
      <point x="690.0" y="174.0"/>
      <point x="533.0" y="-11.0"/>
      <point x="381" y="-11" type="qcurve" smooth="yes"/>
      <point x="374" y="-11.0" type="line" smooth="yes"/>
      <point x="227.0" y="-11"/>
      <point x="68.0" y="154.0"/>
      <point x="68" y="291.0" type="qcurve" smooth="yes"/>
      <point x="68" y="434.0" type="line"/>
      <point x="162" y="434.0" type="line"/>
      <point x="162.0" y="302" type="line" smooth="yes"/>
      <point x="162" y="193.0"/>
      <point x="270" y="75"/>
      <point x="367.0" y="75" type="qcurve" smooth="yes"/>
      <point x="383.0" y="75" type="line" smooth="yes"/>
      <point x="492.0" y="75.0"/>
      <point x="596.0" y="207.0"/>
      <point x="596.0" y="348" type="qcurve" smooth="yes"/>
    </contour>
  </outline>
</glyph>
<glyph name="T" format="2">
  <advance width="582"/>
  <unicode hex="0054"/>
  <outline>
    <contour>
      <point x="246" y="0" type="line"/>
      <point x="246" y="1460" type="line"/>
      <point x="336" y="1460" type="line"/>
      <point x="336" y="0" type="line"/>
    </contour>
    <contour>
      <point x="576" y="1416" type="line"/>
      <point x="6" y="1416" type="line"/>
      <point x="6" y="1500" type="line"/>
      <point x="576" y="1500" type="line"/>
    </contour>
  </outline>
</glyph>
<glyph name="U" format="2">
  <advance width="731"/>
  <unicode hex="0055"/>
  <outline>
    <contour>
      <point x="90" y="1500" type="line"/>
      <point x="180" y="1500" type="line"/>
      <point x="180" y="257" type="line" smooth="yes"/>
      <point x="180" y="169.0"/>
      <point x="278" y="74"/>
      <point x="366" y="74.0" type="qcurve" smooth="yes"/>
      <point x="370" y="74" type="line" smooth="yes"/>
      <point x="452" y="74"/>
      <point x="556" y="174"/>
      <point x="556" y="266" type="qcurve" smooth="yes"/>
      <point x="555" y="1500" type="line"/>
      <point x="643" y="1500" type="line"/>
      <point x="639" y="295" type="line" smooth="yes"/>
      <point x="638.0" y="146.0"/>
      <point x="498" y="-11"/>
      <point x="371" y="-11" type="qcurve" smooth="yes"/>
      <point x="365" y="-11.0" type="line" smooth="yes"/>
      <point x="237.0" y="-11"/>
      <point x="90.0" y="153.0"/>
      <point x="90" y="300" type="qcurve" smooth="yes"/>
    </contour>
  </outline>
</glyph>
<glyph name="V" format="2">
  <advance width="710"/>
  <unicode hex="0056"/>
  <outline>
    <contour>
      <point x="319" y="0" type="line"/>
      <point x="0" y="1500" type="line"/>
      <point x="93" y="1500" type="line"/>
      <point x="360" y="220" type="line"/>
      <point x="620" y="1500" type="line"/>
      <point x="710" y="1500" type="line"/>
      <point x="399" y="0" type="line"/>
    </contour>
  </outline>
</glyph>
<glyph name="W" format="2">
  <advance width="1002"/>
  <unicode hex="0057"/>
  <outline>
    <contour>
      <point x="236" y="0" type="line"/>
      <point x="6" y="1500" type="line"/>
      <point x="96" y="1500" type="line"/>
      <point x="273" y="290" type="line"/>
      <point x="464" y="1500" type="line"/>
      <point x="550" y="1500" type="line"/>
      <point x="751" y="292" type="line"/>
      <point x="915" y="1500" type="line"/>
      <point x="1001" y="1500" type="line"/>
      <point x="776" y="0" type="line"/>
      <point x="706" y="0" type="line"/>
      <point x="507" y="1266" type="line"/>
      <point x="505" y="1266" type="line"/>
      <point x="306" y="0" type="line"/>
    </contour>
  </outline>
</glyph>
<glyph name="X" format="2">
  <advance width="720"/>
  <unicode hex="0058"/>
  <outline>
    <contour>
      <point x="30" y="0" type="line"/>
      <point x="321" y="818" type="line"/>
      <point x="343" y="842" type="line"/>
      <point x="577" y="1500" type="line"/>
      <point x="662" y="1500" type="line"/>
      <point x="392" y="742" type="line"/>
      <point x="368" y="713" type="line"/>
      <point x="115" y="0" type="line"/>
    </contour>
    <contour>
      <point x="601" y="0" type="line"/>
      <point x="336" y="712" type="line"/>
      <point x="326" y="740" type="line"/>
      <point x="43" y="1500" type="line"/>
      <point x="133" y="1500" type="line"/>
      <point x="378" y="840" type="line"/>
      <point x="385" y="821" type="line"/>
      <point x="690" y="0" type="line"/>
    </contour>
  </outline>
</glyph>
<glyph name="Y" format="2">
  <advance width="650"/>
  <unicode hex="0059"/>
  <outline>
    <contour>
      <point x="280" y="0" type="line"/>
      <point x="280" y="670" type="line"/>
      <point x="370" y="670" type="line"/>
      <point x="370" y="0" type="line"/>
    </contour>
    <contour>
      <point x="285" y="600" type="line"/>
      <point x="-10" y="1500" type="line"/>
      <point x="84" y="1496" type="line"/>
      <point x="325" y="743" type="line"/>
      <point x="547" y="1500" type="line"/>
      <point x="640" y="1500" type="line"/>
      <point x="363" y="600" type="line"/>
    </contour>
  </outline>
</glyph>
<glyph name="Z" format="2">
  <advance width="604"/>
  <unicode hex="005A"/>
  <outline>
    <contour>
      <point x="580" y="0" type="line"/>
      <point x="34" y="0" type="line"/>
      <point x="29" y="79" type="line"/>
      <point x="468" y="1416" type="line"/>
      <point x="24" y="1416" type="line"/>
      <point x="24" y="1500" type="line"/>
      <point x="560" y="1500" type="line"/>
      <point x="560" y="1426" type="line"/>
      <point x="123" y="84" type="line"/>
      <point x="580" y="84" type="line"/>
    </contour>
  </outline>
</glyph>
<glyph name="backslash" format="2">
  <advance width="356"/>
  <unicode hex="005C"/>
  <outline>
    <contour>
      <point x="444" y="0" type="line"/>
      <point x="352" y="0" type="line"/>
      <point x="-88" y="1500" type="line"/>
      <point x="4" y="1500" type="line"/>
    </contour>
  </outline>
</glyph>
<glyph name="bracketright" format="2">
  <advance width="324"/>
  <unicode hex="005D"/>
  <outline>
    <contour>
      <point x="198" y="-280" type="line"/>
      <point x="114" y="-280" type="line"/>
      <point x="114" y="1500" type="line"/>
      <point x="198" y="1500" type="line"/>
    </contour>
    <contour>
      <point x="-52" y="-280" type="line"/>
      <point x="-52" y="-200" type="line"/>
      <point x="155" y="-200" type="line"/>
      <point x="155" y="-280" type="line"/>
    </contour>
    <contour>
      <point x="-52" y="1420" type="line"/>
      <point x="-52" y="1500" type="line"/>
      <point x="160" y="1500" type="line"/>
      <point x="160" y="1420" type="line"/>
    </contour>
  </outline>
</glyph>
<glyph name="a" format="2">
  <advance width="587"/>
  <unicode hex="0061"/>
  <outline>
    <contour>
      <point x="60" y="798" type="line"/>
      <point x="33" y="846.0"/>
      <point x="130" y="994"/>
      <point x="260" y="994" type="qcurve" smooth="yes"/>
      <point x="392" y="994"/>
      <point x="498.0" y="840.0"/>
      <point x="500" y="733" type="qcurve" smooth="yes"/>
      <point x="500" y="0" type="line"/>
      <point x="417" y="0" type="line"/>
      <point x="417" y="740" type="line" smooth="yes"/>
      <point x="417" y="836"/>
      <point x="320" y="920"/>
      <point x="242" y="920" type="qcurve" smooth="yes"/>
      <point x="221" y="920"/>
      <point x="162" y="848"/>
      <point x="178" y="820" type="qcurve"/>
    </contour>
    <contour>
      <point x="375" y="73" type="line"/>
      <point x="380" y="50"/>
      <point x="279" y="-13"/>
      <point x="213" y="-13" type="qcurve" smooth="yes"/>
      <point x="122" y="-13"/>
      <point x="17" y="128"/>
      <point x="17" y="311" type="qcurve" smooth="yes"/>
      <point x="17" y="497"/>
      <point x="124.0" y="649"/>
      <point x="233.0" y="649.0" type="qcurve" smooth="yes"/>
      <point x="283.0" y="649"/>
      <point x="375.0" y="625"/>
      <point x="377.0" y="615" type="qcurve"/>
      <point x="376.0" y="537" type="line"/>
      <point x="421.0" y="531"/>
      <point x="314.0" y="571"/>
      <point x="264.0" y="571" type="qcurve" smooth="yes"/>
      <point x="188.0" y="571"/>
      <point x="111" y="441"/>
      <point x="111" y="299" type="qcurve" smooth="yes"/>
      <point x="111" y="157"/>
      <point x="189" y="56"/>
      <point x="269" y="56.0" type="qcurve" smooth="yes"/>
      <point x="303" y="56.0"/>
      <point x="391" y="121"/>
      <point x="374" y="152" type="qcurve"/>
    </contour>
  </outline>
</glyph>
<glyph name="b" format="2">
  <advance width="703"/>
  <unicode hex="0062"/>
  <outline>
    <contour>
      <point x="106" y="0" type="line"/>
      <point x="106" y="1500" type="line"/>
      <point x="186" y="1500" type="line"/>
      <point x="186" y="0" type="line"/>
    </contour>
    <contour>
      <point x="136" y="697" type="line" smooth="yes"/>
      <point x="136" y="830"/>
      <point x="264.0" y="992.0"/>
      <point x="378" y="992.0" type="qcurve" smooth="yes"/>
      <point x="389" y="992.0" type="line" smooth="yes"/>
      <point x="506.0" y="992.0"/>
      <point x="638" y="847"/>
      <point x="638.0" y="729.0" type="qcurve" smooth="yes"/>
      <point x="638.0" y="287" type="line" smooth="yes"/>
      <point x="638.0" y="148.0"/>
      <point x="509" y="-11"/>
      <point x="389" y="-11" type="qcurve" smooth="yes"/>
      <point x="380" y="-11.0" type="line" smooth="yes"/>
      <point x="270" y="-11"/>
      <point x="136" y="136"/>
      <point x="136" y="312" type="qcurve" smooth="yes"/>
    </contour>
    <contour>
      <point x="186.0" y="714" type="qcurve" smooth="yes"/>
      <point x="186.0" y="303" type="line" smooth="yes"/>
      <point x="186.0" y="178.0"/>
      <point x="291" y="63"/>
      <point x="379" y="63.0" type="qcurve" smooth="yes"/>
      <point x="391" y="63.0" type="line" smooth="yes"/>
      <point x="472" y="63"/>
      <point x="558.0" y="169.0"/>
      <point x="558.0" y="259" type="qcurve" smooth="yes"/>
      <point x="558.0" y="711.0" type="line" smooth="yes"/>
      <point x="558" y="808"/>
      <point x="457" y="910.0"/>
      <point x="374" y="910.0" type="qcurve" smooth="yes"/>
      <point x="366" y="910.0" type="line" smooth="yes"/>
      <point x="283.0" y="910.0"/>
      <point x="186" y="800"/>
    </contour>
  </outline>
</glyph>
<glyph name="c" format="2">
  <advance width="623"/>
  <unicode hex="0063"/>
  <outline>
    <contour>
      <point x="581" y="351" type="line"/>
      <point x="581" y="289" type="line" smooth="yes"/>
      <point x="581" y="141"/>
      <point x="434.0" y="-15"/>
      <point x="326" y="-15" type="qcurve" smooth="yes"/>
      <point x="315" y="-15.0" type="line" smooth="yes"/>
      <point x="201" y="-15"/>
      <point x="46" y="131"/>
      <point x="46" y="339" type="qcurve" smooth="yes"/>
      <point x="46" y="688" type="line" smooth="yes"/>
      <point x="46" y="823"/>
      <point x="196" y="991"/>
      <point x="299" y="991" type="qcurve" smooth="yes"/>
      <point x="316" y="991" type="line" smooth="yes"/>
      <point x="423.0" y="991.0"/>
      <point x="576.0" y="856.0"/>
      <point x="576" y="724" type="qcurve" smooth="yes"/>
      <point x="576" y="629" type="line"/>
      <point x="496" y="629" type="line"/>
      <point x="496" y="706" type="line" smooth="yes"/>
      <point x="496.0" y="818.0"/>
      <point x="397.0" y="910.0"/>
      <point x="320" y="910" type="qcurve" smooth="yes"/>
      <point x="310" y="910" type="line" smooth="yes"/>
      <point x="224.0" y="910.0"/>
      <point x="125" y="787"/>
      <point x="125" y="673" type="qcurve" smooth="yes"/>
      <point x="125" y="299" type="line" smooth="yes"/>
      <point x="125" y="195"/>
      <point x="225" y="56"/>
      <point x="315" y="56" type="qcurve" smooth="yes"/>
      <point x="324" y="56" type="line" smooth="yes"/>
      <point x="404" y="56"/>
      <point x="503.0" y="169.0"/>
      <point x="503" y="267" type="qcurve" smooth="yes"/>
      <point x="503" y="353" type="line"/>
    </contour>
  </outline>
</glyph>
<glyph name="e" format="2">
  <advance width="657"/>
  <unicode hex="0065"/>
  <outline>
    <contour>
      <point x="598" y="308" type="line"/>
      <point x="598" y="258" type="line" smooth="yes"/>
      <point x="598" y="131"/>
      <point x="460" y="-16"/>
      <point x="351" y="-16" type="qcurve" smooth="yes"/>
      <point x="332" y="-16" type="line" smooth="yes"/>
      <point x="207" y="-16"/>
      <point x="65" y="128.0"/>
      <point x="65" y="306" type="qcurve" smooth="yes"/>
      <point x="65" y="698" type="line" smooth="yes"/>
      <point x="65" y="841"/>
      <point x="208" y="992"/>
      <point x="317" y="992" type="qcurve" smooth="yes"/>
      <point x="340" y="992" type="line" smooth="yes"/>
      <point x="452" y="992"/>
      <point x="600" y="827"/>
      <point x="599.0" y="672" type="qcurve" smooth="yes"/>
      <point x="599" y="490" type="line"/>
      <point x="114" y="490" type="line"/>
      <point x="114" y="567" type="line"/>
      <point x="521" y="567" type="line"/>
      <point x="521" y="688" type="line" smooth="yes"/>
      <point x="521" y="788"/>
      <point x="423" y="910"/>
      <point x="334" y="910" type="qcurve" smooth="yes"/>
      <point x="325" y="910" type="line" smooth="yes"/>
      <point x="236" y="910"/>
      <point x="145" y="797"/>
      <point x="145" y="688" type="qcurve" smooth="yes"/>
      <point x="145" y="286" type="line" smooth="yes"/>
      <point x="145.0" y="173.0"/>
      <point x="240" y="57"/>
      <point x="331" y="57" type="qcurve" smooth="yes"/>
      <point x="341" y="57" type="line" smooth="yes"/>
      <point x="434" y="57"/>
      <point x="527" y="165"/>
      <point x="523" y="278" type="qcurve" smooth="yes"/>
      <point x="523" y="308" type="line"/>
    </contour>
  </outline>
</glyph>
<glyph name="f" format="2">
  <advance width="483"/>
  <unicode hex="0066"/>
  <outline>
    <contour>
      <point x="456" y="900" type="line"/>
      <point x="39" y="900" type="line"/>
      <point x="39" y="980" type="line"/>
      <point x="456" y="980" type="line"/>
    </contour>
    <contour>
      <point x="280" y="1375" type="qcurve" smooth="yes"/>
      <point x="280" y="0" type="line"/>
      <point x="200" y="0" type="line"/>
      <point x="200" y="1332" type="line" smooth="yes"/>
      <point x="200" y="1437"/>
      <point x="295" y="1553.0"/>
      <point x="386" y="1553.0" type="qcurve" smooth="yes"/>
      <point x="431" y="1553"/>
      <point x="481.0" y="1532.0"/>
      <point x="506" y="1515" type="qcurve"/>
      <point x="469" y="1439" type="line"/>
      <point x="453.0" y="1449.0"/>
      <point x="413" y="1472"/>
      <point x="380" y="1472" type="qcurve" smooth="yes"/>
      <point x="337" y="1472"/>
      <point x="280" y="1421"/>
    </contour>
  </outline>
</glyph>
<glyph name="g" format="2">
  <advance width="703"/>
  <unicode hex="0067"/>
  <outline>
    <contour>
      <point x="567.0" y="697.0" type="qcurve" smooth="yes"/>
      <point x="567.0" y="327.0" type="line" smooth="yes"/>
      <point x="567.0" y="151.0"/>
      <point x="433" y="-6"/>
      <point x="323.0" y="-6.0" type="qcurve" smooth="yes"/>
      <point x="314.0" y="-6.0" type="line" smooth="yes"/>
      <point x="194" y="-6"/>
      <point x="65" y="153.0"/>
      <point x="65.0" y="292.0" type="qcurve" smooth="yes"/>
      <point x="65.0" y="719.0" type="line" smooth="yes"/>
      <point x="65" y="837"/>
      <point x="197.0" y="992.0"/>
      <point x="314.0" y="992.0" type="qcurve" smooth="yes"/>
      <point x="325.0" y="992.0" type="line" smooth="yes"/>
      <point x="439.0" y="992.0"/>
      <point x="567" y="830"/>
    </contour>
    <contour>
      <point x="517.0" y="709.0" type="line" smooth="yes"/>
      <point x="517" y="795"/>
      <point x="420.0" y="905.0"/>
      <point x="337.0" y="905.0" type="qcurve" smooth="yes"/>
      <point x="329.0" y="905.0" type="line" smooth="yes"/>
      <point x="246.0" y="905.0"/>
      <point x="145" y="803"/>
      <point x="145.0" y="706.0" type="qcurve" smooth="yes"/>
      <point x="145.0" y="267.0" type="line" smooth="yes"/>
      <point x="145.0" y="177.0"/>
      <point x="231" y="71"/>
      <point x="312.0" y="71.0" type="qcurve" smooth="yes"/>
      <point x="324.0" y="71.0" type="line" smooth="yes"/>
      <point x="412" y="71"/>
      <point x="517.0" y="178.0"/>
      <point x="517.0" y="303.0" type="qcurve" smooth="yes"/>
    </contour>
    <contour>
      <point x="162" y="-411" type="line"/>
      <point x="181" y="-416"/>
      <point x="225" y="-421"/>
      <point x="256" y="-421.0" type="qcurve" smooth="yes"/>
      <point x="362" y="-421.0"/>
      <point x="517.0" y="-265"/>
      <point x="517.0" y="-126" type="qcurve" smooth="yes"/>
      <point x="517" y="980" type="line"/>
      <point x="597" y="980" type="line"/>
      <point x="597" y="-84" type="line" smooth="yes"/>
      <point x="597.0" y="-291.0"/>
      <point x="399" y="-503"/>
      <point x="261" y="-503" type="qcurve" smooth="yes"/>
      <point x="230" y="-503"/>
      <point x="188" y="-498"/>
      <point x="164" y="-496" type="qcurve"/>
    </contour>
  </outline>
</glyph>
<glyph name="h" format="2">
  <advance width="686"/>
  <unicode hex="0068"/>
  <outline>
    <contour>
      <point x="106" y="0" type="line"/>
      <point x="106" y="1500" type="line"/>
      <point x="186" y="1500" type="line"/>
      <point x="186" y="0" type="line"/>
    </contour>
    <contour>
      <point x="171" y="779" type="line"/>
      <point x="171" y="870"/>
      <point x="297" y="992"/>
      <point x="388" y="992.0" type="qcurve" smooth="yes"/>
      <point x="476" y="992"/>
      <point x="586" y="884"/>
      <point x="586.0" y="781" type="qcurve" smooth="yes"/>
      <point x="586" y="0" type="line"/>
      <point x="506" y="0" type="line"/>
      <point x="506" y="761" type="line" smooth="yes"/>
      <point x="506" y="847"/>
      <point x="425" y="914"/>
      <point x="370" y="914.0" type="qcurve" smooth="yes"/>
      <point x="308" y="914"/>
      <point x="200" y="819"/>
      <point x="175" y="704" type="qcurve"/>
    </contour>
  </outline>
</glyph>
<glyph name="i" format="2">
  <advance width="353"/>
  <unicode hex="0069"/>
  <outline>
    <contour>
      <point x="147" y="0" type="line"/>
      <point x="147" y="980" type="line"/>
      <point x="226" y="980" type="line"/>
      <point x="226" y="0" type="line"/>
    </contour>
    <contour>
      <point x="186" y="1191" type="line" smooth="yes"/>
      <point x="217" y="1191"/>
      <point x="251" y="1227"/>
      <point x="251" y="1258" type="qcurve" smooth="yes"/>
      <point x="251" y="1262" type="line" smooth="yes"/>
      <point x="251" y="1292"/>
      <point x="217" y="1330"/>
      <point x="186" y="1330" type="qcurve" smooth="yes"/>
      <point x="183" y="1330" type="line" smooth="yes"/>
      <point x="153.0" y="1330.0"/>
      <point x="120" y="1292"/>
      <point x="120" y="1262" type="qcurve" smooth="yes"/>
      <point x="120" y="1258" type="line" smooth="yes"/>
      <point x="120" y="1227"/>
      <point x="153.0" y="1191.0"/>
      <point x="183" y="1191" type="qcurve" smooth="yes"/>
    </contour>
    <contour>
      <point x="191" y="900" type="line"/>
      <point x="11" y="900" type="line"/>
      <point x="11" y="980" type="line"/>
      <point x="191" y="980" type="line"/>
    </contour>
  </outline>
</glyph>
<glyph name="j" format="2">
  <advance width="355"/>
  <unicode hex="006A"/>
  <outline>
    <contour>
      <point x="239" y="-261" type="line" smooth="yes"/>
      <point x="239" y="-390"/>
      <point x="137" y="-500.0"/>
      <point x="67" y="-500.0" type="qcurve" smooth="yes"/>
      <point x="21" y="-500"/>
      <point x="-19" y="-491"/>
      <point x="-33" y="-484" type="qcurve"/>
      <point x="-13" y="-402" type="line"/>
      <point x="-4" y="-407"/>
      <point x="27" y="-420"/>
      <point x="55" y="-420" type="qcurve" smooth="yes"/>
      <point x="105" y="-420"/>
      <point x="160" y="-342"/>
      <point x="160" y="-239" type="qcurve" smooth="yes"/>
      <point x="160" y="980" type="line"/>
      <point x="239" y="980" type="line"/>
    </contour>
    <contour>
      <point x="208" y="1191" type="line" smooth="yes"/>
      <point x="239" y="1191"/>
      <point x="273" y="1227"/>
      <point x="273" y="1258" type="qcurve" smooth="yes"/>
      <point x="273" y="1262" type="line" smooth="yes"/>
      <point x="273" y="1292"/>
      <point x="239" y="1330"/>
      <point x="208" y="1330" type="qcurve" smooth="yes"/>
      <point x="207" y="1330" type="line" smooth="yes"/>
      <point x="177" y="1330"/>
      <point x="144" y="1292"/>
      <point x="144" y="1262" type="qcurve" smooth="yes"/>
      <point x="144" y="1258" type="line" smooth="yes"/>
      <point x="144" y="1227"/>
      <point x="177" y="1191"/>
      <point x="207" y="1191" type="qcurve" smooth="yes"/>
    </contour>
    <contour>
      <point x="24" y="900" type="line"/>
      <point x="24" y="980" type="line"/>
      <point x="194" y="980" type="line"/>
      <point x="194" y="900" type="line"/>
    </contour>
  </outline>
</glyph>
<glyph name="k" format="2">
  <advance width="727"/>
  <unicode hex="006B"/>
  <outline>
    <contour>
      <point x="106" y="0" type="line"/>
      <point x="106" y="1500" type="line"/>
      <point x="186" y="1500" type="line"/>
      <point x="186" y="0" type="line"/>
    </contour>
    <contour>
      <point x="388" y="610" type="line"/>
      <point x="172" y="312" type="line"/>
      <point x="168" y="426" type="line"/>
      <point x="267" y="567" type="line"/>
      <point x="557" y="980" type="line"/>
      <point x="653" y="981" type="line"/>
      <point x="404" y="624" type="line"/>
    </contour>
    <contour>
      <point x="423" y="695" type="line"/>
      <point x="705" y="0" type="line"/>
      <point x="615" y="0" type="line"/>
      <point x="365" y="619" type="line"/>
    </contour>
  </outline>
</glyph>
<glyph name="l" format="2">
  <advance width="357"/>
  <unicode hex="006C"/>
  <outline>
    <contour>
      <point x="113" y="67" type="qcurve" smooth="yes"/>
      <point x="110" y="1500" type="line"/>
      <point x="193" y="1500" type="line"/>
      <point x="193" y="0" type="line"/>
      <point x="149.0" y="0"/>
      <point x="113" y="33"/>
    </contour>
    <contour>
      <point x="338" y="29" type="line"/>
      <point x="193" y="0" type="line"/>
      <point x="157" y="76" type="line"/>
      <point x="338" y="104" type="line"/>
    </contour>
  </outline>
</glyph>
<glyph name="m" format="2">
  <advance width="1015"/>
  <unicode hex="006D"/>
  <outline>
    <contour>
      <point x="106" y="0" type="line"/>
      <point x="106" y="980" type="line"/>
      <point x="186" y="980" type="line"/>
      <point x="186" y="0" type="line"/>
    </contour>
    <contour>
      <point x="150" y="781" type="line"/>
      <point x="150" y="869"/>
      <point x="263" y="992.0"/>
      <point x="357" y="992.0" type="qcurve" smooth="yes"/>
      <point x="449" y="992"/>
      <point x="550" y="874"/>
      <point x="550" y="761" type="qcurve" smooth="yes"/>
      <point x="550" y="0" type="line"/>
      <point x="471" y="0" type="line"/>
      <point x="471" y="751" type="line" smooth="yes"/>
      <point x="471" y="846"/>
      <point x="398" y="914"/>
      <point x="345" y="914" type="qcurve" smooth="yes"/>
      <point x="271" y="914"/>
      <point x="180" y="812"/>
      <point x="156" y="701" type="qcurve"/>
    </contour>
    <contour>
      <point x="500" y="779.0" type="line"/>
      <point x="500" y="872"/>
      <point x="625" y="992.0"/>
      <point x="716" y="992.0" type="qcurve" smooth="yes"/>
      <point x="804.0" y="992.0"/>
      <point x="915.0" y="885"/>
      <point x="915.0" y="781" type="qcurve" smooth="yes"/>
      <point x="915" y="0" type="line"/>
      <point x="835" y="0" type="line"/>
      <point x="835.0" y="760" type="line" smooth="yes"/>
      <point x="835.0" y="847"/>
      <point x="760" y="914"/>
      <point x="702" y="914.0" type="qcurve" smooth="yes"/>
      <point x="633" y="914"/>
      <point x="526.0" y="810"/>
      <point x="504.0" y="704" type="qcurve"/>
    </contour>
  </outline>
</glyph>
<glyph name="o" format="2">
  <advance width="671"/>
  <unicode hex="006F"/>
  <outline>
    <contour>
      <point x="322" y="-16" type="line" smooth="yes"/>
      <point x="208" y="-16"/>
      <point x="65" y="127"/>
      <point x="65" y="308" type="qcurve" smooth="yes"/>
      <point x="65" y="698" type="line" smooth="yes"/>
      <point x="65" y="845"/>
      <point x="209" y="992"/>
      <point x="320" y="992" type="qcurve" smooth="yes"/>
      <point x="343" y="992" type="line" smooth="yes"/>
      <point x="457.0" y="992.0"/>
      <point x="606" y="844"/>
      <point x="606" y="703" type="qcurve" smooth="yes"/>
      <point x="606" y="312" type="line" smooth="yes"/>
      <point x="606" y="128"/>
      <point x="459.0" y="-16.0"/>
      <point x="345" y="-16" type="qcurve" smooth="yes"/>
    </contour>
    <contour>
      <point x="343" y="57" type="line" smooth="yes"/>
      <point x="433.0" y="57.0"/>
      <point x="526" y="167"/>
      <point x="526" y="276" type="qcurve" smooth="yes"/>
      <point x="526" y="687" type="line" smooth="yes"/>
      <point x="526" y="796"/>
      <point x="427.0" y="910.0"/>
      <point x="343" y="910" type="qcurve" smooth="yes"/>
      <point x="321" y="910" type="line" smooth="yes"/>
      <point x="242" y="910"/>
      <point x="145" y="796"/>
      <point x="145" y="687" type="qcurve" smooth="yes"/>
      <point x="145" y="276" type="line" smooth="yes"/>
      <point x="145" y="168"/>
      <point x="242" y="57"/>
      <point x="321" y="57" type="qcurve" smooth="yes"/>
    </contour>
  </outline>
</glyph>
<glyph name="p" format="2">
  <advance width="681"/>
  <unicode hex="0070"/>
  <outline>
    <contour>
      <point x="98" y="-500" type="line"/>
      <point x="98" y="980" type="line"/>
      <point x="178" y="980" type="line"/>
      <point x="178" y="-500" type="line"/>
    </contour>
    <contour>
      <point x="125.0" y="508.0" type="line" smooth="yes"/>
      <point x="125.0" y="790.0"/>
      <point x="296.0" y="992.0"/>
      <point x="384" y="992.0" type="qcurve" smooth="yes"/>
      <point x="398" y="992.0" type="line" smooth="yes"/>
      <point x="508.0" y="992.0"/>
      <point x="623.0" y="826.0"/>
      <point x="623" y="687.0" type="qcurve" smooth="yes"/>
      <point x="623" y="340.0" type="line" smooth="yes"/>
      <point x="623.0" y="170.0"/>
      <point x="503.0" y="-17.0"/>
      <point x="383" y="-17.0" type="qcurve" smooth="yes"/>
      <point x="378.0" y="-17" type="line" smooth="yes"/>
      <point x="274.0" y="-17"/>
      <point x="125.0" y="173.0"/>
      <point x="125.0" y="437" type="qcurve" smooth="yes"/>
    </contour>
    <contour>
      <point x="193" y="686.0" type="qcurve" smooth="yes"/>
      <point x="193" y="378.0" type="line" smooth="yes"/>
      <point x="193" y="215.0"/>
      <point x="289.0" y="64.0"/>
      <point x="357" y="64.0" type="qcurve" smooth="yes"/>
      <point x="362" y="64.0" type="line" smooth="yes"/>
      <point x="433.0" y="64.0"/>
      <point x="536" y="186.0"/>
      <point x="536" y="309.0" type="qcurve" smooth="yes"/>
      <point x="536" y="666.0" type="line" smooth="yes"/>
      <point x="536.0" y="795.0"/>
      <point x="432" y="910.0"/>
      <point x="363" y="910.0" type="qcurve" smooth="yes"/>
      <point x="359" y="910.0" type="line" smooth="yes"/>
      <point x="309" y="910.0"/>
      <point x="193" y="778.0"/>
    </contour>
  </outline>
</glyph>
<glyph name="q" format="2">
  <advance width="690"/>
  <unicode hex="0071"/>
  <outline>
    <contour>
      <point x="592" y="-500" type="line"/>
      <point x="511" y="-500" type="line"/>
      <point x="511" y="980" type="line"/>
      <point x="592" y="980" type="line"/>
    </contour>
    <contour>
      <point x="506" y="695" type="qcurve" smooth="yes"/>
      <point x="506" y="236" type="line" smooth="yes"/>
      <point x="506" y="83"/>
      <point x="373" y="-17"/>
      <point x="286" y="-17" type="qcurve" smooth="yes"/>
      <point x="281" y="-17" type="line" smooth="yes"/>
      <point x="166" y="-17"/>
      <point x="46" y="179"/>
      <point x="46" y="354" type="qcurve" smooth="yes"/>
      <point x="46" y="687" type="line" smooth="yes"/>
      <point x="46" y="822"/>
      <point x="166" y="992"/>
      <point x="275" y="992" type="qcurve" smooth="yes"/>
      <point x="280" y="992" type="line" smooth="yes"/>
      <point x="371" y="992"/>
      <point x="506" y="892"/>
    </contour>
    <contour>
      <point x="488" y="644" type="line" smooth="yes"/>
      <point x="488" y="766"/>
      <point x="387" y="910"/>
      <point x="320" y="910" type="qcurve" smooth="yes"/>
      <point x="315" y="910" type="line" smooth="yes"/>
      <point x="240" y="910"/>
      <point x="123" y="791"/>
      <point x="123" y="671" type="qcurve" smooth="yes"/>
      <point x="123" y="321" type="line" smooth="yes"/>
      <point x="123" y="192"/>
      <point x="228" y="63"/>
      <point x="305" y="63" type="qcurve" smooth="yes"/>
      <point x="310" y="63" type="line" smooth="yes"/>
      <point x="365" y="63"/>
      <point x="488" y="176"/>
      <point x="488" y="330" type="qcurve" smooth="yes"/>
    </contour>
  </outline>
</glyph>
<glyph name="r" format="2">
  <advance width="504"/>
  <unicode hex="0072"/>
  <outline>
    <contour>
      <point x="106" y="0" type="line"/>
      <point x="106" y="979" type="line"/>
      <point x="186" y="979" type="line"/>
      <point x="186" y="0" type="line"/>
    </contour>
    <contour>
      <point x="170" y="775" type="line"/>
      <point x="206" y="878"/>
      <point x="369" y="991"/>
      <point x="444" y="991" type="qcurve" smooth="yes"/>
      <point x="470" y="991"/>
      <point x="491" y="988"/>
      <point x="498" y="987" type="qcurve"/>
      <point x="498" y="892" type="line"/>
      <point x="490" y="894"/>
      <point x="467" y="897"/>
      <point x="441" y="897" type="qcurve" smooth="yes"/>
      <point x="364" y="897"/>
      <point x="220" y="806"/>
      <point x="183" y="718" type="qcurve"/>
    </contour>
  </outline>
</glyph>
<glyph name="s" format="2">
  <advance width="655"/>
  <unicode hex="0073"/>
  <outline>
    <contour>
      <point x="525.0" y="255" type="line" smooth="yes"/>
      <point x="525.0" y="339.0"/>
      <point x="437" y="431"/>
      <point x="308.0" y="484" type="qcurve" smooth="yes"/>
      <point x="192" y="532"/>
      <point x="65.0" y="642.0"/>
      <point x="65.0" y="759" type="qcurve" smooth="yes"/>
      <point x="65.0" y="771" type="line" smooth="yes"/>
      <point x="65" y="869"/>
      <point x="216.0" y="992.0"/>
      <point x="334.0" y="992" type="qcurve" smooth="yes"/>
      <point x="340.0" y="992" type="line" smooth="yes"/>
      <point x="454.0" y="992.0"/>
      <point x="593.0" y="858.0"/>
      <point x="593.0" y="759" type="qcurve" smooth="yes"/>
      <point x="593.0" y="741" type="line"/>
      <point x="508.0" y="741" type="line"/>
      <point x="508.0" y="753" type="line" smooth="yes"/>
      <point x="508" y="831"/>
      <point x="417.0" y="910.0"/>
      <point x="338.0" y="910" type="qcurve" smooth="yes"/>
      <point x="331.0" y="910" type="line" smooth="yes"/>
      <point x="244" y="910"/>
      <point x="143" y="837"/>
      <point x="143.0" y="762" type="qcurve" smooth="yes"/>
      <point x="143.0" y="758" type="line" smooth="yes"/>
      <point x="143" y="686.0"/>
      <point x="228" y="614"/>
      <point x="359.0" y="559" type="qcurve" smooth="yes"/>
      <point x="482" y="507"/>
      <point x="605.0" y="379.0"/>
      <point x="605.0" y="258.0" type="qcurve" smooth="yes"/>
      <point x="605.0" y="252.0" type="line" smooth="yes"/>
      <point x="605.0" y="131.0"/>
      <point x="462.0" y="-16.0"/>
      <point x="328.0" y="-16" type="qcurve" smooth="yes"/>
      <point x="319.0" y="-16" type="line" smooth="yes"/>
      <point x="194.0" y="-16"/>
      <point x="49" y="137"/>
      <point x="49.0" y="247" type="qcurve" smooth="yes"/>
      <point x="49.0" y="276" type="line"/>
      <point x="129.0" y="276" type="line"/>
      <point x="129.0" y="262" type="line" smooth="yes"/>
      <point x="129" y="161"/>
      <point x="238.0" y="57"/>
      <point x="321.0" y="57" type="qcurve" smooth="yes"/>
      <point x="326.0" y="57" type="line" smooth="yes"/>
      <point x="428.0" y="57.0"/>
      <point x="525" y="168"/>
      <point x="525.0" y="249" type="qcurve" smooth="yes"/>
    </contour>
  </outline>
</glyph>
<glyph name="t" format="2">
  <advance width="303"/>
  <unicode hex="0074"/>
  <outline>
    <contour>
      <point x="312" y="898" type="line"/>
      <point x="10" y="898" type="line"/>
      <point x="10" y="980" type="line"/>
      <point x="312" y="980" type="line"/>
    </contour>
    <contour>
      <point x="192.0" y="151" type="line" smooth="yes"/>
      <point x="192.0" y="117.0"/>
      <point x="234.0" y="78.0"/>
      <point x="258.0" y="78" type="qcurve" smooth="yes"/>
      <point x="285" y="78"/>
      <point x="325.0" y="89"/>
      <point x="324.0" y="93" type="qcurve"/>
      <point x="323.0" y="12" type="line"/>
      <point x="311.0" y="6"/>
      <point x="280.0" y="-8"/>
      <point x="271" y="-8" type="qcurve"/>
      <point x="202.0" y="-8"/>
      <point x="111.0" y="98.0"/>
      <point x="111.0" y="191" type="qcurve" smooth="yes"/>
      <point x="111" y="1233" type="line"/>
      <point x="192" y="1233" type="line"/>
    </contour>
  </outline>
</glyph>
<glyph name="u" format="2">
  <advance width="686"/>
  <unicode hex="0075"/>
  <outline>
    <contour>
      <point x="580.0" y="980.0" type="line"/>
      <point x="580.0" y="0.0" type="line"/>
      <point x="500.0" y="0.0" type="line"/>
      <point x="500.0" y="980.0" type="line"/>
    </contour>
    <contour>
      <point x="515.0" y="191.0" type="line"/>
      <point x="511.0" y="104.0"/>
      <point x="389.0" y="-12.0"/>
      <point x="298.0" y="-12.0" type="qcurve" smooth="yes"/>
      <point x="210.0" y="-12.0"/>
      <point x="100.0" y="96.0"/>
      <point x="100.0" y="199.0" type="qcurve" smooth="yes"/>
      <point x="100.0" y="980.0" type="line"/>
      <point x="180.0" y="980.0" type="line"/>
      <point x="180.0" y="214.0" type="line" smooth="yes"/>
      <point x="180.0" y="128.0"/>
      <point x="261.0" y="61.0"/>
      <point x="316.0" y="61.0" type="qcurve" smooth="yes"/>
      <point x="378.0" y="61.0"/>
      <point x="486.0" y="151.0"/>
      <point x="511.0" y="266.0" type="qcurve"/>
    </contour>
  </outline>
</glyph>
<glyph name="v" format="2">
  <advance width="601"/>
  <unicode hex="0076"/>
  <outline>
    <contour>
      <point x="268" y="0" type="line"/>
      <point x="10" y="980" type="line"/>
      <point x="92" y="980" type="line"/>
      <point x="303" y="170" type="line"/>
      <point x="507" y="980" type="line"/>
      <point x="591" y="980" type="line"/>
      <point x="336" y="0" type="line"/>
    </contour>
  </outline>
</glyph>
<glyph name="w" format="2">
  <advance width="867"/>
  <unicode hex="0077"/>
  <outline>
    <contour>
      <point x="204" y="0" type="line"/>
      <point x="20" y="980" type="line"/>
      <point x="102" y="980" type="line"/>
      <point x="240" y="168" type="line"/>
      <point x="395" y="980" type="line"/>
      <point x="476" y="980" type="line"/>
      <point x="621" y="170" type="line"/>
      <point x="766" y="980" type="line"/>
      <point x="847" y="980" type="line"/>
      <point x="656" y="0" type="line"/>
      <point x="586" y="0" type="line"/>
      <point x="436" y="832" type="line"/>
      <point x="274" y="0" type="line"/>
    </contour>
  </outline>
</glyph>
<glyph name="x" format="2">
  <advance width="580"/>
  <unicode hex="0078"/>
  <outline>
    <contour>
      <point x="15" y="0" type="line"/>
      <point x="453" y="980" type="line"/>
      <point x="540" y="980" type="line"/>
      <point x="101" y="0" type="line"/>
    </contour>
    <contour>
      <point x="477" y="0" type="line"/>
      <point x="31" y="980" type="line"/>
      <point x="117" y="980" type="line"/>
      <point x="565" y="0" type="line"/>
    </contour>
  </outline>
</glyph>
<glyph name="y" format="2">
  <advance width="600"/>
  <unicode hex="0079"/>
  <outline>
    <contour>
      <point x="260" y="35" type="qcurve"/>
      <point x="10" y="980" type="line"/>
      <point x="92" y="980" type="line"/>
      <point x="302" y="170" type="line"/>
      <point x="507" y="980" type="line"/>
      <point x="591" y="980" type="line"/>
      <point x="335" y="1" type="line" smooth="yes"/>
      <point x="271" y="-243"/>
      <point x="144" y="-500"/>
      <point x="27" y="-500" type="qcurve" smooth="yes"/>
      <point x="-15" y="-500"/>
      <point x="-70" y="-488"/>
      <point x="-89" y="-480" type="qcurve"/>
      <point x="-77" y="-398" type="line"/>
      <point x="-56" y="-405"/>
      <point x="-6" y="-417"/>
      <point x="29" y="-417" type="qcurve" smooth="yes"/>
      <point x="95" y="-417"/>
      <point x="184" y="-263"/>
    </contour>
  </outline>
</glyph>
<glyph name="z" format="2">
  <advance width="523"/>
  <unicode hex="007A"/>
  <outline>
    <contour>
      <point x="505" y="0" type="line"/>
      <point x="35" y="0" type="line"/>
      <point x="30" y="75" type="line"/>
      <point x="399" y="900" type="line"/>
      <point x="51" y="900" type="line"/>
      <point x="51" y="980" type="line"/>
      <point x="493" y="980" type="line"/>
      <point x="493" y="915" type="line"/>
      <point x="116" y="79" type="line"/>
      <point x="505" y="79" type="line"/>
    </contour>
  </outline>
</glyph>
<glyph name="bar" format="2">
  <advance width="384"/>
  <unicode hex="007C"/>
  <outline>
    <contour>
      <point x="147" y="-500" type="line"/>
      <point x="147" y="1500" type="line"/>
      <point x="237" y="1500" type="line"/>
      <point x="237" y="-500" type="line"/>
    </contour>
  </outline>
</glyph>
<glyph name="braceright" format="2">
  <advance width="324"/>
  <unicode hex="007D"/>
  <outline>
    <contour>
      <point x="342" y="565" type="qcurve"/>
      <point x="342" y="655" type="line"/>
      <point x="211" y="670"/>
      <point x="135.0" y="742.0"/>
      <point x="135.0" y="790.0" type="qcurve" smooth="yes"/>
      <point x="135" y="827"/>
      <point x="192" y="896"/>
      <point x="226" y="938" type="qcurve" smooth="yes"/>
      <point x="260" y="980"/>
      <point x="313" y="1082"/>
      <point x="313.0" y="1158.0" type="qcurve" smooth="yes"/>
      <point x="313" y="1265"/>
      <point x="140" y="1476"/>
      <point x="17" y="1526" type="qcurve"/>
      <point x="-30" y="1457" type="line"/>
      <point x="81" y="1415"/>
      <point x="226" y="1234"/>
      <point x="226" y="1153" type="qcurve" smooth="yes"/>
      <point x="226" y="1113"/>
      <point x="199" y="1033"/>
      <point x="160.0" y="987.0" type="qcurve" smooth="yes"/>
      <point x="119.0" y="938.0"/>
      <point x="52.0" y="846.0"/>
      <point x="52.0" y="802.0" type="qcurve" smooth="yes"/>
      <point x="52.0" y="736.0"/>
      <point x="179.0" y="634.0"/>
      <point x="307.0" y="613.0" type="qcurve"/>
      <point x="193.0" y="599.0"/>
      <point x="57.0" y="498.0"/>
      <point x="57.0" y="424.0" type="qcurve" smooth="yes"/>
      <point x="57" y="376"/>
      <point x="125.0" y="289.0"/>
      <point x="165.0" y="235.0" type="qcurve" smooth="yes"/>
      <point x="201" y="186"/>
      <point x="231" y="109"/>
      <point x="231.0" y="70.0" type="qcurve" smooth="yes"/>
      <point x="231.0" y="-6.0"/>
      <point x="86.0" y="-140.0"/>
      <point x="-22.0" y="-220.0" type="qcurve"/>
      <point x="17" y="-304" type="line"/>
      <point x="142" y="-215"/>
      <point x="318" y="-33"/>
      <point x="318.0" y="68.0" type="qcurve" smooth="yes"/>
      <point x="318" y="140"/>
      <point x="264" y="241"/>
      <point x="231" y="284" type="qcurve" smooth="yes"/>
      <point x="198" y="326"/>
      <point x="141" y="395"/>
      <point x="141.0" y="433.0" type="qcurve" smooth="yes"/>
      <point x="141" y="484"/>
      <point x="216" y="562"/>
    </contour>
  </outline>
</glyph>
